<svg id="logo_appstore" xmlns="http://www.w3.org/2000/svg" width="150.431" height="45.129" viewBox="0 0 150.431 45.129">
  <path id="Path_1" data-name="Path 1" d="M150.431,40.616a4.4,4.4,0,0,1-4.282,4.513H4.282A4.4,4.4,0,0,1,0,40.616V4.513A4.476,4.476,0,0,1,4.282,0H146.034a4.4,4.4,0,0,1,4.282,4.513l.116,36.1"/>
  <path id="Path_2" data-name="Path 2" d="M31.164,20.435A6.478,6.478,0,0,1,34.289,15,6.985,6.985,0,0,0,28.966,12.1c-2.2-.231-4.4,1.273-5.554,1.273S20.518,12.1,18.667,12.1a6.875,6.875,0,0,0-5.9,3.587c-2.546,4.4-.694,10.993,1.851,14.58,1.273,1.736,2.661,3.7,4.513,3.7,1.851-.116,2.546-1.157,4.744-1.157s2.893,1.157,4.744,1.157c1.967,0,3.24-1.736,4.4-3.587a14.728,14.728,0,0,0,1.967-4.05,6.822,6.822,0,0,1-3.819-5.9" transform="translate(1.815 1.898)" fill="#fff"/>
  <path id="Path_3" data-name="Path 3" d="M25.987,10.629A6.582,6.582,0,0,0,27.491,6,7.316,7.316,0,0,0,23.21,8.2a5.852,5.852,0,0,0-1.5,4.4,4.9,4.9,0,0,0,4.282-1.967" transform="translate(3.405 0.943)" fill="#fff"/>
  <path id="Path_4" data-name="Path 4" d="M53.229,32.743H50.683l-1.389-4.4h-4.86l-1.389,4.4H40.5L45.36,17.7h3.009Zm-4.4-6.249L47.559,22.56c-.116-.347-.347-1.389-.81-2.777h0a23.928,23.928,0,0,1-.694,2.777l-1.273,3.934Z" transform="translate(6.365 2.782)" fill="#fff"/>
  <path id="Path_5" data-name="Path 5" d="M63.73,26.639a5.979,5.979,0,0,1-1.5,4.4,4.451,4.451,0,0,1-3.356,1.389,3.462,3.462,0,0,1-3.124-1.5v5.67h-2.43V25.019c0-1.157,0-2.314-.116-3.587h2.083l.116,1.736h0A4.048,4.048,0,0,1,59.1,21.2a4.1,4.1,0,0,1,3.24,1.5,5.636,5.636,0,0,1,1.389,3.934m-2.546.116a4.794,4.794,0,0,0-.694-2.661,2.628,2.628,0,0,0-2.083-1.041,2.765,2.765,0,0,0-1.62.579,2.572,2.572,0,0,0-.926,1.5,2.036,2.036,0,0,0-.116.694V27.68a2.722,2.722,0,0,0,.694,1.967,2.3,2.3,0,0,0,1.851.81,2.336,2.336,0,0,0,2.083-1.041,3.673,3.673,0,0,0,.81-2.661" transform="translate(8.361 3.332)" fill="#fff"/>
  <path id="Path_6" data-name="Path 6" d="M74.414,26.639a5.979,5.979,0,0,1-1.5,4.4,4.305,4.305,0,0,1-3.24,1.5,3.462,3.462,0,0,1-3.124-1.5v5.67h-2.43V25.019c0-1.157,0-2.314-.116-3.587h2.083l.116,1.736h0A4.048,4.048,0,0,1,69.9,21.2a4.1,4.1,0,0,1,3.24,1.5,5.57,5.57,0,0,1,1.273,3.934m-2.43.116a4.794,4.794,0,0,0-.694-2.661,2.474,2.474,0,0,0-2.083-1.041,2.765,2.765,0,0,0-1.62.579,2.572,2.572,0,0,0-.926,1.5,2.036,2.036,0,0,0-.116.694V27.68a2.722,2.722,0,0,0,.694,1.967,2.3,2.3,0,0,0,1.851.81,2.336,2.336,0,0,0,2.083-1.041,3.673,3.673,0,0,0,.81-2.661" transform="translate(10.058 3.332)" fill="#fff"/>
  <path id="Path_7" data-name="Path 7" d="M86.373,28.577A3.962,3.962,0,0,1,84.984,31.7a5.509,5.509,0,0,1-4.05,1.273A7.909,7.909,0,0,1,77,32.049l.579-1.967a7.069,7.069,0,0,0,3.471.926,3.436,3.436,0,0,0,2.083-.579,2.121,2.121,0,0,0,.231-3.124,5.8,5.8,0,0,0-2.083-1.157c-2.661-.926-3.934-2.43-3.934-4.282a3.732,3.732,0,0,1,1.389-3.009,5.464,5.464,0,0,1,3.7-1.157,6.9,6.9,0,0,1,3.356.694l-.579,1.967a5.942,5.942,0,0,0-2.893-.694,3.31,3.31,0,0,0-1.967.579,1.916,1.916,0,0,0-.579,1.389,2.037,2.037,0,0,0,.694,1.5,8.978,8.978,0,0,0,2.2,1.157,9.6,9.6,0,0,1,2.893,1.851,3.587,3.587,0,0,1,.81,2.43" transform="translate(12.102 2.782)" fill="#fff"/>
  <path id="Path_8" data-name="Path 8" d="M92.9,23.513H90.234v5.323c0,1.389.463,1.967,1.389,1.967a2.568,2.568,0,0,0,1.041-.116l.116,1.851a4.512,4.512,0,0,1-1.851.231,2.785,2.785,0,0,1-2.2-.926,3.937,3.937,0,0,1-.81-2.893V23.513H86.3V21.661h1.62V19.694L90.234,19v2.661H92.9Z" transform="translate(13.563 2.986)" fill="#fff"/>
  <path id="Path_9" data-name="Path 9" d="M103.73,26.786a5.936,5.936,0,0,1-1.389,4.05,5.447,5.447,0,0,1-7.753,0,5.936,5.936,0,0,1-1.389-4.05,5.775,5.775,0,0,1,1.5-4.166A5.138,5.138,0,0,1,98.639,21a4.887,4.887,0,0,1,3.819,1.62,7.113,7.113,0,0,1,1.273,4.166m-2.43,0a4.4,4.4,0,0,0-.694-2.546,2.535,2.535,0,0,0-4.4,0,4.665,4.665,0,0,0-.694,2.546,4.4,4.4,0,0,0,.694,2.546,2.535,2.535,0,0,0,4.4,0,4.4,4.4,0,0,0,.694-2.546" transform="translate(14.648 3.3)" fill="#fff"/>
  <path id="Path_10" data-name="Path 10" d="M109.9,23.514c-.231,0-.463-.116-.81-.116a2.472,2.472,0,0,0-1.967.926,4.116,4.116,0,0,0-.579,2.2v5.67h-2.43V24.787A29.3,29.3,0,0,0,104,21.431h2.083l.116,2.083h.116a4.578,4.578,0,0,1,1.157-1.736,3.443,3.443,0,0,1,1.736-.579h.579Z" transform="translate(16.345 3.332)" fill="#fff"/>
  <path id="Path_11" data-name="Path 11" d="M119.7,26.292a2.568,2.568,0,0,1-.116,1.041h-7.174a2.989,2.989,0,0,0,1.041,2.43,3.727,3.727,0,0,0,2.314.81,7.6,7.6,0,0,0,2.893-.463l.347,1.62a8.626,8.626,0,0,1-3.587.694,4.9,4.9,0,0,1-3.934-1.5,5.636,5.636,0,0,1-1.389-3.934,5.936,5.936,0,0,1,1.389-4.05,4.623,4.623,0,0,1,3.819-1.736,4.052,4.052,0,0,1,3.587,1.736,7.179,7.179,0,0,1,.81,3.356m-2.314-.579a3.4,3.4,0,0,0-.463-1.851,2.144,2.144,0,0,0-1.967-1.041,2.649,2.649,0,0,0-1.967.926A3.633,3.633,0,0,0,112.3,25.6h5.092Z" transform="translate(17.304 3.332)" fill="#fff"/>
  <path id="Path_12" data-name="Path 12" d="M47.549,14.106H46.276l-.694-2.2H43.267l-.694,2.2H41.3L43.73,6.7h1.5Zm-2.083-3.124-.579-1.967a5.77,5.77,0,0,1-.347-1.389h0a12.009,12.009,0,0,0-.347,1.389l-.579,1.967Z" transform="translate(6.491 1.053)" fill="#fff"/>
  <path id="Path_13" data-name="Path 13" d="M52.592,8.5l-1.967,5.323H49.467L47.5,8.5h1.273l.926,2.777.347,1.389h0a12.009,12.009,0,0,0,.347-1.389L51.319,8.5Z" transform="translate(7.465 1.336)" fill="#fff"/>
  <path id="Path_14" data-name="Path 14" d="M57.1,13.854H56.056l-.116-.579h0a1.866,1.866,0,0,1-1.5.694,1.74,1.74,0,0,1-1.273-.463,2.079,2.079,0,0,1-.463-1.041,1.57,1.57,0,0,1,.81-1.5,4.325,4.325,0,0,1,2.314-.463v-.231c0-.694-.347-1.041-1.157-1.041a2.468,2.468,0,0,0-1.389.347l-.231-.81A3.155,3.155,0,0,1,54.9,8.3c1.389,0,2.083.694,2.083,2.2v2.083c0,.579.116.926.116,1.273M55.824,12v-.81c-1.273,0-1.967.347-1.967,1.041a.791.791,0,0,0,.81.81,1.645,1.645,0,0,0,.694-.231,1.155,1.155,0,0,0,.463-.579Z" transform="translate(8.283 1.304)" fill="#fff"/>
  <path id="Path_15" data-name="Path 15" d="M59.6,7.194a.6.6,0,0,1-.231.463.884.884,0,0,1-.579.231.6.6,0,0,1-.463-.231.877.877,0,0,1-.231-.463.6.6,0,0,1,.231-.463.877.877,0,0,1,.463-.231.6.6,0,0,1,.463.231c.231.116.347.231.347.463m-.231,6.943H58.216V8.814h1.157Z" transform="translate(9.131 1.022)" fill="#fff"/>
  <rect id="Rectangle_149" data-name="Rectangle 149" width="1.157" height="7.753" transform="translate(70.703 7.406)" fill="#fff"/>
  <path id="Path_16" data-name="Path 16" d="M68.013,13.854H66.971l-.116-.579h0a2.1,2.1,0,0,1-1.62.694,1.74,1.74,0,0,1-1.273-.463,2.079,2.079,0,0,1-.463-1.041,1.57,1.57,0,0,1,.81-1.5,4.325,4.325,0,0,1,2.314-.463v-.231c0-.694-.347-1.041-1.157-1.041a2.468,2.468,0,0,0-1.389.347l-.231-.81A3.155,3.155,0,0,1,65.7,8.3c1.389,0,2.083.694,2.083,2.2v2.083c.116.579.116.926.231,1.273M66.74,12v-.81c-1.273,0-1.967.347-1.967,1.041a.791.791,0,0,0,.81.81,1.645,1.645,0,0,0,.694-.231,1.155,1.155,0,0,0,.463-.579Z" transform="translate(9.98 1.304)" fill="#fff"/>
  <path id="Path_17" data-name="Path 17" d="M74.207,11.376a3.336,3.336,0,0,1-.694,2.2,2.1,2.1,0,0,1-1.62.694,1.72,1.72,0,0,1-1.62-.926h0l-.116.81H69V6.4h1.157V9.64a1.9,1.9,0,0,1,1.736-.926,2.1,2.1,0,0,1,1.62.694,2.92,2.92,0,0,1,.694,1.967m-1.273.116a2.333,2.333,0,0,0-.347-1.273,1.215,1.215,0,0,0-1.041-.579,1.672,1.672,0,0,0-.81.231,1.865,1.865,0,0,0-.463.81v1.273a1.195,1.195,0,0,0,1.273,1.273,1.128,1.128,0,0,0,1.041-.463,1.861,1.861,0,0,0,.347-1.273" transform="translate(10.844 1.006)" fill="#fff"/>
  <rect id="Rectangle_150" data-name="Rectangle 150" width="1.157" height="7.753" transform="translate(86.787 7.406)" fill="#fff"/>
  <path id="Path_18" data-name="Path 18" d="M82.244,10.93v.579H78.657a1.542,1.542,0,0,0,.463,1.157,1.955,1.955,0,0,0,1.157.347,4.316,4.316,0,0,0,1.389-.231l.231.81a3.864,3.864,0,0,1-1.736.347,2.722,2.722,0,0,1-1.967-.694,2.722,2.722,0,0,1-.694-1.967,2.722,2.722,0,0,1,.694-1.967,2.158,2.158,0,0,1,1.851-.81,1.827,1.827,0,0,1,1.736.81,2.262,2.262,0,0,1,.463,1.62m-1.157-.347a2.18,2.18,0,0,0-.231-.926.939.939,0,0,0-.926-.463A1.052,1.052,0,0,0,79,9.657a1.314,1.314,0,0,0-.347.926Z" transform="translate(12.18 1.336)" fill="#fff"/>
  <path id="Path_19" data-name="Path 19" d="M90.807,11.193a2.722,2.722,0,0,1-.694,1.967,2.384,2.384,0,0,1-1.967.81,2.158,2.158,0,0,1-1.851-.81,2.722,2.722,0,0,1-.694-1.967,3.231,3.231,0,0,1,.694-2.083,2.384,2.384,0,0,1,1.967-.81,2.158,2.158,0,0,1,1.851.81,3.231,3.231,0,0,1,.694,2.083m-1.273,0a2.333,2.333,0,0,0-.347-1.273,1.012,1.012,0,0,0-1.041-.579A1.215,1.215,0,0,0,87.1,9.92a2.507,2.507,0,0,0,0,2.546,1.012,1.012,0,0,0,1.041.579,1.112,1.112,0,0,0,1.041-.694,1.728,1.728,0,0,0,.347-1.157" transform="translate(13.453 1.304)" fill="#fff"/>
  <path id="Path_20" data-name="Path 20" d="M96.213,13.839H95.056V10.83q0-1.389-1.041-1.389a1.05,1.05,0,0,0-.81.347,1.314,1.314,0,0,0-.347.926v3.124H91.7V8.516h1.041v.81h0a1.394,1.394,0,0,1,.579-.579A1.866,1.866,0,0,1,94.361,8.4a1.74,1.74,0,0,1,1.273.463,1.991,1.991,0,0,1,.579,1.736Z" transform="translate(14.412 1.32)" fill="#fff"/>
  <path id="Path_21" data-name="Path 21" d="M102.724,9.614h-1.273V12.16q0,1.041.694,1.041h.579v.926a2.256,2.256,0,0,1-.926.116,1.128,1.128,0,0,1-1.041-.463,2.225,2.225,0,0,1-.347-1.389V9.614H99.6V8.689h.81V7.647l1.157-.347V8.573h1.273V9.614Z" transform="translate(15.653 1.147)" fill="#fff"/>
  <path id="Path_22" data-name="Path 22" d="M108.313,14.153h-1.157V11.144q0-1.389-1.041-1.389a1.114,1.114,0,0,0-1.157.81v3.7H103.8V6.4h1.157V9.64h0a2.007,2.007,0,0,1,2.893-.347,2.6,2.6,0,0,1,.579,1.736v3.124Z" transform="translate(16.314 1.006)" fill="#fff"/>
  <path id="Path_23" data-name="Path 23" d="M113.644,10.93v.579h-3.587a1.542,1.542,0,0,0,.463,1.157,1.955,1.955,0,0,0,1.157.347,4.316,4.316,0,0,0,1.389-.231l.231.81a4.227,4.227,0,0,1-1.736.347,2.722,2.722,0,0,1-1.967-.694,2.722,2.722,0,0,1-.694-1.967,2.722,2.722,0,0,1,.694-1.967,2.158,2.158,0,0,1,1.851-.81,1.827,1.827,0,0,1,1.736.81,3,3,0,0,1,.463,1.62m-1.157-.347a2.18,2.18,0,0,0-.231-.926.939.939,0,0,0-.926-.463,1.052,1.052,0,0,0-.926.463,1.314,1.314,0,0,0-.347.926Z" transform="translate(17.115 1.336)" fill="#fff"/>
</svg>
