<svg id="logo_playstore" xmlns="http://www.w3.org/2000/svg" xmlns:xlink="http://www.w3.org/1999/xlink" width="150.431" height="45.129" viewBox="0 0 150.431 45.129">
  <defs>
    <linearGradient id="linear-gradient" x1="0.919" y1="0.988" x2="-0.385" y2="0.32" gradientUnits="objectBoundingBox">
      <stop offset="0" stop-color="#00a0ff"/>
      <stop offset="0.007" stop-color="#00a1ff"/>
      <stop offset="0.26" stop-color="#00beff"/>
      <stop offset="0.512" stop-color="#00d2ff"/>
      <stop offset="0.76" stop-color="#00dfff"/>
      <stop offset="1" stop-color="#00e3ff"/>
    </linearGradient>
    <linearGradient id="linear-gradient-2" x1="1.082" y1="0.625" x2="-1.301" y2="0.625" gradientUnits="objectBoundingBox">
      <stop offset="0" stop-color="#ffe000"/>
      <stop offset="0.409" stop-color="#ffbd00"/>
      <stop offset="0.775" stop-color="orange"/>
      <stop offset="1" stop-color="#ff9c00"/>
    </linearGradient>
    <linearGradient id="linear-gradient-3" x1="0.864" y1="-0.096" x2="-0.497" y2="-1.865" gradientUnits="objectBoundingBox">
      <stop offset="0" stop-color="#ff3a44"/>
      <stop offset="1" stop-color="#c31162"/>
    </linearGradient>
    <linearGradient id="linear-gradient-4" x1="-0.185" y1="2.624" x2="0.423" y2="1.834" gradientUnits="objectBoundingBox">
      <stop offset="0" stop-color="#32a071"/>
      <stop offset="0.068" stop-color="#2da771"/>
      <stop offset="0.476" stop-color="#15cf74"/>
      <stop offset="0.801" stop-color="#06e775"/>
      <stop offset="1" stop-color="#00f076"/>
    </linearGradient>
  </defs>
  <path id="Path_24" data-name="Path 24" d="M150.431,40.616a4.4,4.4,0,0,1-4.282,4.513H4.282A4.4,4.4,0,0,1,0,40.616V4.513A4.476,4.476,0,0,1,4.282,0H146.034a4.4,4.4,0,0,1,4.282,4.513l.116,36.1"/>
  <g id="Group_17" data-name="Group 17" transform="translate(46.171 7.753)">
    <path id="Path_25" data-name="Path 25" d="M46.612,10.634a2.881,2.881,0,0,1-.81,2.2,3.152,3.152,0,0,1-2.43,1.041,3.33,3.33,0,0,1-2.43-1.041A3.4,3.4,0,0,1,39.9,10.287a3.4,3.4,0,0,1,1.041-2.546A3.33,3.33,0,0,1,43.371,6.7a5.808,5.808,0,0,1,1.389.231,4.038,4.038,0,0,1,1.041.694l-.579.579a2.158,2.158,0,0,0-1.851-.81,2.837,2.837,0,0,0-1.851.694,2.792,2.792,0,0,0-.81,1.967,2.538,2.538,0,0,0,.81,1.967,2.816,2.816,0,0,0,3.7,0,2.54,2.54,0,0,0,.579-1.389h-2.43v-.463h3.24C46.5,10.287,46.612,10.519,46.612,10.634Z" transform="translate(-39.9 -6.7)" fill="#fff" stroke="#fff" stroke-miterlimit="10" stroke-width="0.2"/>
    <path id="Path_26" data-name="Path 26" d="M50.634,7.81H47.626V9.893H50.4v.81H47.626v2.083h3.009v.81H46.7V7h3.934Z" transform="translate(-38.831 -6.653)" fill="#fff" stroke="#fff" stroke-miterlimit="10" stroke-width="0.2"/>
    <path id="Path_27" data-name="Path 27" d="M53.561,13.712h-.81V7.81H50.9V7h4.629v.81H53.677v5.9Z" transform="translate(-38.171 -6.653)" fill="#fff" stroke="#fff" stroke-miterlimit="10" stroke-width="0.2"/>
    <path id="Path_28" data-name="Path 28" d="M57.7,13.712V7h.81v6.712Z" transform="translate(-37.102 -6.653)" fill="#fff" stroke="#fff" stroke-miterlimit="10" stroke-width="0.2"/>
    <path id="Path_29" data-name="Path 29" d="M62.177,13.712h-.926V7.81H59.4V7h4.629v.81H62.177v5.9Z" transform="translate(-36.835 -6.653)" fill="#fff" stroke="#fff" stroke-miterlimit="10" stroke-width="0.2"/>
    <path id="Path_30" data-name="Path 30" d="M71.7,12.8a3.33,3.33,0,0,1-2.43,1.041,3.152,3.152,0,0,1-2.43-1.041,3.331,3.331,0,0,1-1.041-2.43,3.152,3.152,0,0,1,1.041-2.43,3.356,3.356,0,0,1,4.86,0,3.331,3.331,0,0,1,1.041,2.43A3.857,3.857,0,0,1,71.7,12.8Zm-4.282-.579a2.628,2.628,0,0,0,1.851.694,2.837,2.837,0,0,0,1.851-.694,2.722,2.722,0,0,0,.694-1.967,2.92,2.92,0,0,0-.694-1.967,2.628,2.628,0,0,0-1.851-.694,2.837,2.837,0,0,0-1.851.694,2.722,2.722,0,0,0-.694,1.967A2.722,2.722,0,0,0,67.42,12.223Z" transform="translate(-35.829 -6.669)" fill="#fff" stroke="#fff" stroke-miterlimit="10" stroke-width="0.2"/>
    <path id="Path_31" data-name="Path 31" d="M72.8,13.712V7h1.041l3.24,5.207h0V7h.81v6.712h-.926L73.61,8.157h0V13.6H72.8Z" transform="translate(-34.729 -6.653)" fill="#fff" stroke="#fff" stroke-miterlimit="10" stroke-width="0.2"/>
  </g>
  <path id="Path_32" data-name="Path 32" d="M69.7,21.923a4.744,4.744,0,1,0,4.744,4.744A4.623,4.623,0,0,0,69.7,21.923Zm0,7.637a2.75,2.75,0,0,1-2.661-2.893,2.671,2.671,0,1,1,5.323,0A2.749,2.749,0,0,1,69.7,29.56ZM59.287,21.923a4.744,4.744,0,1,0,4.744,4.744A4.557,4.557,0,0,0,59.287,21.923Zm0,7.637a2.75,2.75,0,0,1-2.661-2.893,2.671,2.671,0,1,1,5.323,0A2.679,2.679,0,0,1,59.287,29.56ZM47.022,23.312v1.967h4.86a3.981,3.981,0,0,1-1.041,2.546,5.033,5.033,0,0,1-3.7,1.5,5.323,5.323,0,0,1,0-10.646,4.868,4.868,0,0,1,3.587,1.389l1.389-1.389A6.921,6.921,0,0,0,47.022,16.6,7.558,7.558,0,0,0,39.5,24.006a7.483,7.483,0,0,0,7.522,7.406,6.462,6.462,0,0,0,5.092-2.083,6.905,6.905,0,0,0,1.736-4.744,4.339,4.339,0,0,0-.116-1.273Zm50.452,1.62a4.391,4.391,0,0,0-4.05-3.009,4.574,4.574,0,0,0-4.513,4.744,4.623,4.623,0,0,0,4.744,4.744,4.467,4.467,0,0,0,3.934-2.083l-1.62-1.041a2.668,2.668,0,0,1-2.314,1.273,2.429,2.429,0,0,1-2.314-1.389l6.364-2.661Zm-6.48,1.62a2.609,2.609,0,0,1,2.43-2.777,1.862,1.862,0,0,1,1.736,1.041ZM85.9,31.065h2.083V17.179H85.9Zm-3.471-8.1h0a3.461,3.461,0,0,0-2.546-1.041,4.75,4.75,0,0,0,0,9.489,3.27,3.27,0,0,0,2.546-1.041h.116v.579c0,1.851-.926,2.777-2.546,2.777a2.7,2.7,0,0,1-2.43-1.736l-1.851.81a4.345,4.345,0,0,0,4.166,2.777c2.43,0,4.513-1.389,4.513-4.976V22.039H82.431v.926Zm-2.314,6.6a2.75,2.75,0,0,1-2.661-2.893,2.618,2.618,0,1,1,5.207,0A2.814,2.814,0,0,1,80.116,29.56Zm27.078-12.382h-4.976V31.065H104.3V25.742h2.893a4.287,4.287,0,1,0,0-8.563Zm.116,6.712H104.3V19.146h3.009a2.373,2.373,0,1,1,0,4.744Zm12.845-1.967a4.044,4.044,0,0,0-3.7,2.083l1.851.81a1.879,1.879,0,0,1,1.851-1.041c1.041,0,2.2.694,2.2,1.736v.116a4.207,4.207,0,0,0-2.2-.579c-1.967,0-4.05,1.041-4.05,3.124,0,1.851,1.62,3.009,3.471,3.009a2.808,2.808,0,0,0,2.661-1.389h.116v1.041h1.967V25.51C124.32,23.312,122.469,21.923,120.154,21.923Zm-.231,7.637c-.694,0-1.62-.347-1.62-1.157,0-1.041,1.157-1.5,2.2-1.5a3.585,3.585,0,0,1,1.851.463A2.487,2.487,0,0,1,119.923,29.56Zm11.8-7.406-2.43,6.017h-.116l-2.43-6.017h-2.2l3.7,8.447-2.083,4.744h2.2l5.67-13.192h-2.314Zm-18.746,8.91h2.083V17.179H112.98Z" transform="translate(6.208 2.609)" fill="#fff"/>
  <g id="Group_19" data-name="Group 19" transform="translate(11.109 8.176)">
    <path id="Path_33" data-name="Path 33" d="M10.063,7.5A3,3,0,0,0,9.6,9.12V33.768a3,3,0,0,0,.463,1.62l.116.116,13.77-13.77V21.5L10.063,7.5Z" transform="translate(-9.6 -6.997)" fill="url(#linear-gradient)"/>
    <path id="Path_34" data-name="Path 34" d="M26.629,24.889,22,20.26v-.231L26.629,15.4l.116.116,5.439,3.124c1.5.926,1.5,2.314,0,3.24l-5.554,3.009Z" transform="translate(-7.651 -5.755)" fill="url(#linear-gradient-2)"/>
    <path id="Path_35" data-name="Path 35" d="M28.63,24.244,23.886,19.5,10,33.386c.463.579,1.389.579,2.314.116L28.63,24.244" transform="translate(-9.537 -5.111)" fill="url(#linear-gradient-3)"/>
    <path id="Path_36" data-name="Path 36" d="M28.63,16.7,12.314,7.445A1.879,1.879,0,0,0,10,7.561L23.886,21.447Z" transform="translate(-9.537 -7.058)" fill="url(#linear-gradient-4)"/>
    <g id="Group_18" data-name="Group 18" transform="translate(0 19.018)">
      <path id="Path_37" data-name="Path 37" d="M28.515,23.5l-16.2,9.142c-.926.463-1.736.463-2.2,0h0L10,32.757h0l.116.116h0c.463.463,1.273.463,2.2,0l16.2-9.373Z" transform="translate(-9.537 -23.5)" opacity="0.2"/>
      <path id="Path_38" data-name="Path 38" d="M10.063,31.62A2.262,2.262,0,0,1,9.6,30v.116a3,3,0,0,0,.463,1.62V31.62Z" transform="translate(-9.6 -22.478)" opacity="0.12"/>
    </g>
    <path id="Path_39" data-name="Path 39" d="M31.554,21,26,24.129l.116.116,5.439-3.124a1.924,1.924,0,0,0,1.157-1.62h0C32.712,20.079,32.249,20.541,31.554,21Z" transform="translate(-7.023 -5.111)" opacity="0.12"/>
    <path id="Path_40" data-name="Path 40" d="M12.377,7.684,34.132,20.066a1.872,1.872,0,0,1,1.157,1.389h0a1.924,1.924,0,0,0-1.157-1.62L12.377,7.453c-1.5-.926-2.777-.116-2.777,1.62V9.3C9.6,7.568,10.873,6.758,12.377,7.684Z" transform="translate(-9.6 -7.065)" fill="#fff" opacity="0.25"/>
  </g>
</svg>
